<svg width="1200" height="550" viewBox="0 0 1200 550" fill="none" xmlns="http://www.w3.org/2000/svg">
<rect x="400" width="50" height="50" fill="#F9DA77" style="fill:#F9DA77;fill:color(display-p3 0.9765 0.8549 0.4667);fill-opacity:1;"/>
<rect x="400" y="50" width="50" height="50" fill="#F9DA77" style="fill:#F9DA77;fill:color(display-p3 0.9765 0.8549 0.4667);fill-opacity:1;"/>
<rect x="400" y="150" width="50" height="50" fill="#F9DA77" style="fill:#F9DA77;fill:color(display-p3 0.9765 0.8549 0.4667);fill-opacity:1;"/>
<rect x="400" y="100" width="50" height="50" fill="#F9DA77" style="fill:#F9DA77;fill:color(display-p3 0.9765 0.8549 0.4667);fill-opacity:1;"/>
<rect x="500" y="150" width="50" height="50" fill="#F9DA77" style="fill:#F9DA77;fill:color(display-p3 0.9765 0.8549 0.4667);fill-opacity:1;"/>
<rect x="550" y="150" width="50" height="50" fill="#F9DA77" style="fill:#F9DA77;fill:color(display-p3 0.9765 0.8549 0.4667);fill-opacity:1;"/>
<rect x="600" y="150" width="50" height="50" fill="#F9DA77" style="fill:#F9DA77;fill:color(display-p3 0.9765 0.8549 0.4667);fill-opacity:1;"/>
<rect x="550" y="100" width="50" height="50" fill="#F9DA77" style="fill:#F9DA77;fill:color(display-p3 0.9765 0.8549 0.4667);fill-opacity:1;"/>
<rect x="500" y="100" width="50" height="50" fill="#F9DA77" style="fill:#F9DA77;fill:color(display-p3 0.9765 0.8549 0.4667);fill-opacity:1;"/>
<rect x="600" y="100" width="50" height="50" fill="#F9DA77" style="fill:#F9DA77;fill:color(display-p3 0.9765 0.8549 0.4667);fill-opacity:1;"/>
<rect x="650" y="150" width="50" height="50" fill="#F9DA77" style="fill:#F9DA77;fill:color(display-p3 0.9765 0.8549 0.4667);fill-opacity:1;"/>
<rect x="550" y="200" width="50" height="50" fill="#F9DA77" style="fill:#F9DA77;fill:color(display-p3 0.9765 0.8549 0.4667);fill-opacity:1;"/>
<rect x="650" y="100" width="50" height="50" fill="#F9DA77" style="fill:#F9DA77;fill:color(display-p3 0.9765 0.8549 0.4667);fill-opacity:1;"/>
<rect x="550" y="250" width="50" height="50" fill="#F9DA77" style="fill:#F9DA77;fill:color(display-p3 0.9765 0.8549 0.4667);fill-opacity:1;"/>
<rect x="500" y="200" width="50" height="50" fill="#F9DA77" style="fill:#F9DA77;fill:color(display-p3 0.9765 0.8549 0.4667);fill-opacity:1;"/>
<rect x="550" y="300" width="50" height="50" fill="#F9DA77" style="fill:#F9DA77;fill:color(display-p3 0.9765 0.8549 0.4667);fill-opacity:1;"/>
<rect x="600" y="200" width="50" height="50" fill="#F9DA77" style="fill:#F9DA77;fill:color(display-p3 0.9765 0.8549 0.4667);fill-opacity:1;"/>
<rect x="500" y="250" width="50" height="50" fill="#F9DA77" style="fill:#F9DA77;fill:color(display-p3 0.9765 0.8549 0.4667);fill-opacity:1;"/>
<rect x="600" y="250" width="50" height="50" fill="#F9DA77" style="fill:#F9DA77;fill:color(display-p3 0.9765 0.8549 0.4667);fill-opacity:1;"/>
<rect x="500" y="300" width="50" height="50" fill="#F9DA77" style="fill:#F9DA77;fill:color(display-p3 0.9765 0.8549 0.4667);fill-opacity:1;"/>
<rect x="600" y="300" width="50" height="50" fill="#F9DA77" style="fill:#F9DA77;fill:color(display-p3 0.9765 0.8549 0.4667);fill-opacity:1;"/>
<rect x="550" y="500" width="50" height="50" fill="#A2A2A2" style="fill:#A2A2A2;fill:color(display-p3 0.6369 0.6369 0.6369);fill-opacity:1;"/>
<rect x="550" y="350" width="50" height="50" fill="#303030" style="fill:#303030;fill:color(display-p3 0.1890 0.1890 0.1890);fill-opacity:1;"/>
<rect x="500" y="500" width="50" height="50" fill="#A2A2A2" style="fill:#A2A2A2;fill:color(display-p3 0.6369 0.6369 0.6369);fill-opacity:1;"/>
<rect x="550" y="400" width="50" height="50" fill="#F9DA77" style="fill:#F9DA77;fill:color(display-p3 0.9765 0.8549 0.4667);fill-opacity:1;"/>
<rect x="500" y="350" width="50" height="50" fill="#F9DA77" style="fill:#F9DA77;fill:color(display-p3 0.9765 0.8549 0.4667);fill-opacity:1;"/>
<rect x="500" y="400" width="50" height="50" fill="#F9DA77" style="fill:#F9DA77;fill:color(display-p3 0.9765 0.8549 0.4667);fill-opacity:1;"/>
<rect x="650" y="200" width="50" height="50" fill="#F9DA77" style="fill:#F9DA77;fill:color(display-p3 0.9765 0.8549 0.4667);fill-opacity:1;"/>
<rect x="600" y="500" width="50" height="50" fill="#A2A2A2" style="fill:#A2A2A2;fill:color(display-p3 0.6369 0.6369 0.6369);fill-opacity:1;"/>
<rect x="650" y="250" width="50" height="50" fill="#F9DA77" style="fill:#F9DA77;fill:color(display-p3 0.9765 0.8549 0.4667);fill-opacity:1;"/>
<rect x="650" y="300" width="50" height="50" fill="#F9DA77" style="fill:#F9DA77;fill:color(display-p3 0.9765 0.8549 0.4667);fill-opacity:1;"/>
<rect x="600" y="350" width="50" height="50" fill="#303030" style="fill:#303030;fill:color(display-p3 0.1890 0.1890 0.1890);fill-opacity:1;"/>
<rect x="600" y="400" width="50" height="50" fill="#F9DA77" style="fill:#F9DA77;fill:color(display-p3 0.9765 0.8549 0.4667);fill-opacity:1;"/>
<rect x="650" y="500" width="50" height="50" fill="#A2A2A2" style="fill:#A2A2A2;fill:color(display-p3 0.6369 0.6369 0.6369);fill-opacity:1;"/>
<rect x="700" y="50" width="50" height="50" fill="#F9DA77" style="fill:#F9DA77;fill:color(display-p3 0.9765 0.8549 0.4667);fill-opacity:1;"/>
<rect x="800" y="250" width="50" height="50" fill="#F9DA77" style="fill:#F9DA77;fill:color(display-p3 0.9765 0.8549 0.4667);fill-opacity:1;"/>
<rect x="700" y="300" width="50" height="50" fill="#F9DA77" style="fill:#F9DA77;fill:color(display-p3 0.9765 0.8549 0.4667);fill-opacity:1;"/>
<rect x="650" y="350" width="50" height="50" fill="#F9DA77" style="fill:#F9DA77;fill:color(display-p3 0.9765 0.8549 0.4667);fill-opacity:1;"/>
<rect x="650" y="400" width="50" height="50" fill="#F9DA77" style="fill:#F9DA77;fill:color(display-p3 0.9765 0.8549 0.4667);fill-opacity:1;"/>
<rect x="750" y="200" width="50" height="50" fill="#F9DA77" style="fill:#F9DA77;fill:color(display-p3 0.9765 0.8549 0.4667);fill-opacity:1;"/>
<rect x="800" y="200" width="50" height="50" fill="#F9DA77" style="fill:#F9DA77;fill:color(display-p3 0.9765 0.8549 0.4667);fill-opacity:1;"/>
<rect x="350" y="200" width="50" height="50" fill="#F9DA77" style="fill:#F9DA77;fill:color(display-p3 0.9765 0.8549 0.4667);fill-opacity:1;"/>
<rect x="700" y="500" width="50" height="50" fill="#A2A2A2" style="fill:#A2A2A2;fill:color(display-p3 0.6369 0.6369 0.6369);fill-opacity:1;"/>
<rect x="300" y="200" width="50" height="50" fill="#F9DA77" style="fill:#F9DA77;fill:color(display-p3 0.9765 0.8549 0.4667);fill-opacity:1;"/>
<rect x="850" y="200" width="50" height="50" fill="#F9DA77" style="fill:#F9DA77;fill:color(display-p3 0.9765 0.8549 0.4667);fill-opacity:1;"/>
<rect x="750" y="250" width="50" height="50" fill="#F9DA77" style="fill:#F9DA77;fill:color(display-p3 0.9765 0.8549 0.4667);fill-opacity:1;"/>
<rect x="750" y="300" width="50" height="50" fill="#F9DA77" style="fill:#F9DA77;fill:color(display-p3 0.9765 0.8549 0.4667);fill-opacity:1;"/>
<rect x="750" y="500" width="50" height="50" fill="#A2A2A2" style="fill:#A2A2A2;fill:color(display-p3 0.6369 0.6369 0.6369);fill-opacity:1;"/>
<rect x="700" y="350" width="50" height="50" fill="#F9DA77" style="fill:#F9DA77;fill:color(display-p3 0.9765 0.8549 0.4667);fill-opacity:1;"/>
<rect x="700" y="400" width="50" height="50" fill="#F9DA77" style="fill:#F9DA77;fill:color(display-p3 0.9765 0.8549 0.4667);fill-opacity:1;"/>
<rect x="700" y="150" width="50" height="50" fill="#F9DA77" style="fill:#F9DA77;fill:color(display-p3 0.9765 0.8549 0.4667);fill-opacity:1;"/>
<rect x="350" y="500" width="50" height="50" fill="#A2A2A2" style="fill:#A2A2A2;fill:color(display-p3 0.6369 0.6369 0.6369);fill-opacity:1;"/>
<rect x="800" y="300" width="50" height="50" fill="#F9DA77" style="fill:#F9DA77;fill:color(display-p3 0.9765 0.8549 0.4667);fill-opacity:1;"/>
<rect x="750" y="350" width="50" height="50" fill="#F9DA77" style="fill:#F9DA77;fill:color(display-p3 0.9765 0.8549 0.4667);fill-opacity:1;"/>
<rect x="750" y="400" width="50" height="50" fill="#F9DA77" style="fill:#F9DA77;fill:color(display-p3 0.9765 0.8549 0.4667);fill-opacity:1;"/>
<rect x="300" y="500" width="50" height="50" fill="#A2A2A2" style="fill:#A2A2A2;fill:color(display-p3 0.6369 0.6369 0.6369);fill-opacity:1;"/>
<rect x="350" y="250" width="50" height="50" fill="#F9DA77" style="fill:#F9DA77;fill:color(display-p3 0.9765 0.8549 0.4667);fill-opacity:1;"/>
<rect x="350" y="300" width="50" height="50" fill="#F9DA77" style="fill:#F9DA77;fill:color(display-p3 0.9765 0.8549 0.4667);fill-opacity:1;"/>
<rect x="350" y="350" width="50" height="50" fill="#F9DA77" style="fill:#F9DA77;fill:color(display-p3 0.9765 0.8549 0.4667);fill-opacity:1;"/>
<rect x="800" y="500" width="50" height="50" fill="#A2A2A2" style="fill:#A2A2A2;fill:color(display-p3 0.6369 0.6369 0.6369);fill-opacity:1;"/>
<rect x="350" y="400" width="50" height="50" fill="#F9DA77" style="fill:#F9DA77;fill:color(display-p3 0.9765 0.8549 0.4667);fill-opacity:1;"/>
<rect x="300" y="250" width="50" height="50" fill="#F9DA77" style="fill:#F9DA77;fill:color(display-p3 0.9765 0.8549 0.4667);fill-opacity:1;"/>
<rect x="850" y="500" width="50" height="50" fill="#A2A2A2" style="fill:#A2A2A2;fill:color(display-p3 0.6369 0.6369 0.6369);fill-opacity:1;"/>
<rect x="300" y="300" width="50" height="50" fill="#F9DA77" style="fill:#F9DA77;fill:color(display-p3 0.9765 0.8549 0.4667);fill-opacity:1;"/>
<rect x="300" y="350" width="50" height="50" fill="#F9DA77" style="fill:#F9DA77;fill:color(display-p3 0.9765 0.8549 0.4667);fill-opacity:1;"/>
<rect x="300" y="400" width="50" height="50" fill="#F9DA77" style="fill:#F9DA77;fill:color(display-p3 0.9765 0.8549 0.4667);fill-opacity:1;"/>
<rect x="850" y="250" width="50" height="50" fill="#F9DA77" style="fill:#F9DA77;fill:color(display-p3 0.9765 0.8549 0.4667);fill-opacity:1;"/>
<rect x="450" y="500" width="50" height="50" fill="#A2A2A2" style="fill:#A2A2A2;fill:color(display-p3 0.6369 0.6369 0.6369);fill-opacity:1;"/>
<rect x="850" y="300" width="50" height="50" fill="#F9DA77" style="fill:#F9DA77;fill:color(display-p3 0.9765 0.8549 0.4667);fill-opacity:1;"/>
<rect x="800" y="350" width="50" height="50" fill="#F9DA77" style="fill:#F9DA77;fill:color(display-p3 0.9765 0.8549 0.4667);fill-opacity:1;"/>
<rect x="800" y="400" width="50" height="50" fill="#F9DA77" style="fill:#F9DA77;fill:color(display-p3 0.9765 0.8549 0.4667);fill-opacity:1;"/>
<rect x="400" y="500" width="50" height="50" fill="#A2A2A2" style="fill:#A2A2A2;fill:color(display-p3 0.6369 0.6369 0.6369);fill-opacity:1;"/>
<rect x="850" y="350" width="50" height="50" fill="#F9DA77" style="fill:#F9DA77;fill:color(display-p3 0.9765 0.8549 0.4667);fill-opacity:1;"/>
<rect x="850" y="400" width="50" height="50" fill="#F9DA77" style="fill:#F9DA77;fill:color(display-p3 0.9765 0.8549 0.4667);fill-opacity:1;"/>
<rect x="450" y="50" width="50" height="50" fill="#F9DA77" style="fill:#F9DA77;fill:color(display-p3 0.9765 0.8549 0.4667);fill-opacity:1;"/>
<rect x="450" y="150" width="50" height="50" fill="#F9DA77" style="fill:#F9DA77;fill:color(display-p3 0.9765 0.8549 0.4667);fill-opacity:1;"/>
<rect x="450" y="300" width="50" height="50" fill="#F9DA77" style="fill:#F9DA77;fill:color(display-p3 0.9765 0.8549 0.4667);fill-opacity:1;"/>
<rect x="450" y="350" width="50" height="50" fill="#F9DA77" style="fill:#F9DA77;fill:color(display-p3 0.9765 0.8549 0.4667);fill-opacity:1;"/>
<rect x="450" y="400" width="50" height="50" fill="#F9DA77" style="fill:#F9DA77;fill:color(display-p3 0.9765 0.8549 0.4667);fill-opacity:1;"/>
<rect x="400" y="200" width="50" height="50" fill="#F9DA77" style="fill:#F9DA77;fill:color(display-p3 0.9765 0.8549 0.4667);fill-opacity:1;"/>
<rect x="400" y="250" width="50" height="50" fill="#F9DA77" style="fill:#F9DA77;fill:color(display-p3 0.9765 0.8549 0.4667);fill-opacity:1;"/>
<rect x="400" y="300" width="50" height="50" fill="#F9DA77" style="fill:#F9DA77;fill:color(display-p3 0.9765 0.8549 0.4667);fill-opacity:1;"/>
<rect x="400" y="350" width="50" height="50" fill="#F9DA77" style="fill:#F9DA77;fill:color(display-p3 0.9765 0.8549 0.4667);fill-opacity:1;"/>
<rect x="400" y="400" width="50" height="50" fill="#F9DA77" style="fill:#F9DA77;fill:color(display-p3 0.9765 0.8549 0.4667);fill-opacity:1;"/>
<rect x="750" y="50" width="50" height="50" fill="#F9DA77" style="fill:#F9DA77;fill:color(display-p3 0.9765 0.8549 0.4667);fill-opacity:1;"/>
<rect x="800" y="50" width="50" height="50" fill="#F9DA77" style="fill:#F9DA77;fill:color(display-p3 0.9765 0.8549 0.4667);fill-opacity:1;"/>
<rect x="350" y="50" width="50" height="50" fill="#F9DA77" style="fill:#F9DA77;fill:color(display-p3 0.9765 0.8549 0.4667);fill-opacity:1;"/>
<rect x="750" y="150" width="50" height="50" fill="#F9DA77" style="fill:#F9DA77;fill:color(display-p3 0.9765 0.8549 0.4667);fill-opacity:1;"/>
<rect x="750" y="100" width="50" height="50" fill="#F9DA77" style="fill:#F9DA77;fill:color(display-p3 0.9765 0.8549 0.4667);fill-opacity:1;"/>
<rect x="800" y="150" width="50" height="50" fill="#F9DA77" style="fill:#F9DA77;fill:color(display-p3 0.9765 0.8549 0.4667);fill-opacity:1;"/>
<rect x="800" y="100" width="50" height="50" fill="#F9DA77" style="fill:#F9DA77;fill:color(display-p3 0.9765 0.8549 0.4667);fill-opacity:1;"/>
<rect x="350" y="150" width="50" height="50" fill="#F9DA77" style="fill:#F9DA77;fill:color(display-p3 0.9765 0.8549 0.4667);fill-opacity:1;"/>
<rect x="350" y="100" width="50" height="50" fill="#F9DA77" style="fill:#F9DA77;fill:color(display-p3 0.9765 0.8549 0.4667);fill-opacity:1;"/>
<rect x="300" y="150" width="50" height="50" fill="#F9DA77" style="fill:#F9DA77;fill:color(display-p3 0.9765 0.8549 0.4667);fill-opacity:1;"/>
<rect x="300" y="100" width="50" height="50" fill="#F9DA77" style="fill:#F9DA77;fill:color(display-p3 0.9765 0.8549 0.4667);fill-opacity:1;"/>
<rect x="250" y="250" width="50" height="50" fill="white" style="fill:white;fill-opacity:1;"/>
<rect width="50" height="50" transform="matrix(-1 0 0 1 950 250)" fill="white" style="fill:white;fill-opacity:1;"/>
<rect x="200" y="200" width="50" height="50" fill="white" style="fill:white;fill-opacity:1;"/>
<rect width="50" height="50" transform="matrix(-1 0 0 1 1000 200)" fill="white" style="fill:white;fill-opacity:1;"/>
<rect x="250" y="200" width="50" height="50" fill="white" style="fill:white;fill-opacity:1;"/>
<rect width="50" height="50" transform="matrix(-1 0 0 1 950 200)" fill="white" style="fill:white;fill-opacity:1;"/>
<rect x="200" y="150" width="50" height="50" fill="white" style="fill:white;fill-opacity:1;"/>
<rect width="50" height="50" transform="matrix(-1 0 0 1 1000 150)" fill="white" style="fill:white;fill-opacity:1;"/>
<rect x="150" y="100" width="50" height="50" fill="white" style="fill:white;fill-opacity:1;"/>
<rect width="50" height="50" transform="matrix(-1 0 0 1 1050 100)" fill="white" style="fill:white;fill-opacity:1;"/>
<rect x="150" y="200" width="50" height="50" fill="white" style="fill:white;fill-opacity:1;"/>
<rect width="50" height="50" transform="matrix(-1 0 0 1 1050 200)" fill="white" style="fill:white;fill-opacity:1;"/>
<rect x="150" y="150" width="50" height="50" fill="white" style="fill:white;fill-opacity:1;"/>
<rect width="50" height="50" transform="matrix(-1 0 0 1 1050 150)" fill="white" style="fill:white;fill-opacity:1;"/>
<rect x="100" y="200" width="50" height="50" fill="white" fill-opacity="0.9" style="fill:white;fill-opacity:0.9;"/>
<rect width="50" height="50" transform="matrix(-1 0 0 1 1100 200)" fill="white" fill-opacity="0.9" style="fill:white;fill-opacity:0.9;"/>
<rect x="100" y="150" width="50" height="50" fill="white" style="fill:white;fill-opacity:1;"/>
<rect width="50" height="50" transform="matrix(-1 0 0 1 1100 150)" fill="white" style="fill:white;fill-opacity:1;"/>
<rect x="50" y="150" width="50" height="50" fill="white" style="fill:white;fill-opacity:1;"/>
<rect width="50" height="50" transform="matrix(-1 0 0 1 1150 150)" fill="white" style="fill:white;fill-opacity:1;"/>
<rect y="150" width="50" height="50" fill="white" style="fill:white;fill-opacity:1;"/>
<rect width="50" height="50" transform="matrix(-1 0 0 1 1200 150)" fill="white" style="fill:white;fill-opacity:1;"/>
<rect x="100" y="100" width="50" height="50" fill="white" style="fill:white;fill-opacity:1;"/>
<rect width="50" height="50" transform="matrix(-1 0 0 1 1100 100)" fill="white" style="fill:white;fill-opacity:1;"/>
<rect x="50" y="200" width="50" height="50" fill="white" style="fill:white;fill-opacity:1;"/>
<rect width="50" height="50" transform="matrix(-1 0 0 1 1150 200)" fill="white" style="fill:white;fill-opacity:1;"/>
<rect x="100" y="250" width="50" height="50" fill="white" fill-opacity="0.8" style="fill:white;fill-opacity:0.8;"/>
<rect width="50" height="50" transform="matrix(-1 0 0 1 1100 250)" fill="white" fill-opacity="0.8" style="fill:white;fill-opacity:0.8;"/>
<rect x="250" y="300" width="50" height="50" fill="white" fill-opacity="0.9" style="fill:white;fill-opacity:0.9;"/>
<rect width="50" height="50" transform="matrix(-1 0 0 1 950 300)" fill="white" fill-opacity="0.9" style="fill:white;fill-opacity:0.9;"/>
<rect x="550" width="50" height="50" fill="#F9DA77" style="fill:#F9DA77;fill:color(display-p3 0.9765 0.8549 0.4667);fill-opacity:1;"/>
<rect x="200" y="250" width="50" height="50" fill="white" style="fill:white;fill-opacity:1;"/>
<rect width="50" height="50" transform="matrix(-1 0 0 1 1000 250)" fill="white" style="fill:white;fill-opacity:1;"/>
<rect x="150" y="250" width="50" height="50" fill="white" fill-opacity="0.9" style="fill:white;fill-opacity:0.9;"/>
<rect width="50" height="50" transform="matrix(-1 0 0 1 1050 250)" fill="white" fill-opacity="0.9" style="fill:white;fill-opacity:0.9;"/>
<rect x="200" y="300" width="50" height="50" fill="white" fill-opacity="0.9" style="fill:white;fill-opacity:0.9;"/>
<rect width="50" height="50" transform="matrix(-1 0 0 1 1000 300)" fill="white" fill-opacity="0.9" style="fill:white;fill-opacity:0.9;"/>
<rect x="850" y="150" width="50" height="50" fill="#F9DA77" style="fill:#F9DA77;fill:color(display-p3 0.9765 0.8549 0.4667);fill-opacity:1;"/>
<rect x="850" y="100" width="50" height="50" fill="#F9DA77" style="fill:#F9DA77;fill:color(display-p3 0.9765 0.8549 0.4667);fill-opacity:1;"/>
<rect x="450" width="50" height="50" fill="#F9DA77" style="fill:#F9DA77;fill:color(display-p3 0.9765 0.8549 0.4667);fill-opacity:1;"/>
<rect x="500" width="50" height="50" fill="#F9DA77" style="fill:#F9DA77;fill:color(display-p3 0.9765 0.8549 0.4667);fill-opacity:1;"/>
<rect x="600" width="50" height="50" fill="#F9DA77" style="fill:#F9DA77;fill:color(display-p3 0.9765 0.8549 0.4667);fill-opacity:1;"/>
<rect x="650" width="50" height="50" fill="#F9DA77" style="fill:#F9DA77;fill:color(display-p3 0.9765 0.8549 0.4667);fill-opacity:1;"/>
<rect x="550" y="50" width="50" height="50" fill="#F9DA77" style="fill:#F9DA77;fill:color(display-p3 0.9765 0.8549 0.4667);fill-opacity:1;"/>
<rect x="700" width="50" height="50" fill="#F9DA77" style="fill:#F9DA77;fill:color(display-p3 0.9765 0.8549 0.4667);fill-opacity:1;"/>
<rect x="750" width="50" height="50" fill="#F9DA77" style="fill:#F9DA77;fill:color(display-p3 0.9765 0.8549 0.4667);fill-opacity:1;"/>
<rect x="450" y="200" width="50" height="50" fill="#303030" style="fill:#303030;fill:color(display-p3 0.1890 0.1890 0.1890);fill-opacity:1;"/>
<rect x="450" y="250" width="50" height="50" fill="#303030" style="fill:#303030;fill:color(display-p3 0.1890 0.1890 0.1890);fill-opacity:1;"/>
<rect x="450" y="100" width="50" height="50" fill="#F9DA77" style="fill:#F9DA77;fill:color(display-p3 0.9765 0.8549 0.4667);fill-opacity:1;"/>
<rect x="700" y="250" width="50" height="50" fill="#303030" style="fill:#303030;fill:color(display-p3 0.1890 0.1890 0.1890);fill-opacity:1;"/>
<rect x="700" y="100" width="50" height="50" fill="#F9DA77" style="fill:#F9DA77;fill:color(display-p3 0.9765 0.8549 0.4667);fill-opacity:1;"/>
<rect x="500" y="50" width="50" height="50" fill="#F9DA77" style="fill:#F9DA77;fill:color(display-p3 0.9765 0.8549 0.4667);fill-opacity:1;"/>
<rect x="600" y="50" width="50" height="50" fill="#F9DA77" style="fill:#F9DA77;fill:color(display-p3 0.9765 0.8549 0.4667);fill-opacity:1;"/>
<rect x="650" y="50" width="50" height="50" fill="#F9DA77" style="fill:#F9DA77;fill:color(display-p3 0.9765 0.8549 0.4667);fill-opacity:1;"/>
<rect x="700" y="200" width="50" height="50" fill="#303030" style="fill:#303030;fill:color(display-p3 0.1890 0.1890 0.1890);fill-opacity:1;"/>
</svg>
